<svg xmlns="http://www.w3.org/2000/svg" width="960" height="420" viewBox="0 0 960 420">
  <rect width="960" height="420" fill="#0b0d10"/>
  <text x="48" y="40" fill="#b8f000" font-family="monospace" font-size="13">LGA · 6-ROLE TAXONOMY</text>
  <text x="48" y="66" fill="#ece8e1" font-family="sans-serif" font-size="20">Hardware-bounded DEX on Base mainnet</text>
  <rect x="40" y="96" width="130" height="88" rx="6" fill="#1a1f28" stroke="#b8f000" stroke-width="1.5"/>
  <text x="105" y="128" text-anchor="middle" fill="#b8f000" font-family="sans-serif" font-size="11">1 · INTENT</text>
  <text x="105" y="150" text-anchor="middle" fill="#ece8e1" font-family="sans-serif" font-size="13">Composer</text>
  <text x="105" y="170" text-anchor="middle" fill="#8a8780" font-family="sans-serif" font-size="10">draft / classify</text>
  <rect x="190" y="96" width="130" height="88" rx="6" fill="#1a1f28" stroke="#66aa99" stroke-width="1.5"/>
  <text x="255" y="128" text-anchor="middle" fill="#66aa99" font-family="sans-serif" font-size="11">2 · BAND</text>
  <text x="255" y="150" text-anchor="middle" fill="#ece8e1" font-family="sans-serif" font-size="13">Autopilot</text>
  <text x="255" y="170" text-anchor="middle" fill="#8a8780" font-family="sans-serif" font-size="10">pay-on-hit</text>
  <rect x="340" y="96" width="130" height="88" rx="6" fill="#1a1f28" stroke="#66aa99" stroke-width="1.5"/>
  <text x="405" y="128" text-anchor="middle" fill="#66aa99" font-family="sans-serif" font-size="11">3 · MARKET</text>
  <text x="405" y="150" text-anchor="middle" fill="#ece8e1" font-family="sans-serif" font-size="13">Solver</text>
  <text x="405" y="170" text-anchor="middle" fill="#8a8780" font-family="sans-serif" font-size="10">Messari / Pyth</text>
  <rect x="490" y="96" width="130" height="88" rx="6" fill="#1a1f28" stroke="#ff55aa" stroke-width="1.5"/>
  <text x="555" y="128" text-anchor="middle" fill="#ff55aa" font-family="sans-serif" font-size="11">4 · x402</text>
  <text x="555" y="150" text-anchor="middle" fill="#ece8e1" font-family="sans-serif" font-size="13">Payer</text>
  <text x="555" y="170" text-anchor="middle" fill="#8a8780" font-family="sans-serif" font-size="10">HBAR settle</text>
  <rect x="640" y="96" width="130" height="88" rx="6" fill="#1a1f28" stroke="#58a6ff" stroke-width="1.5"/>
  <text x="705" y="128" text-anchor="middle" fill="#58a6ff" font-family="sans-serif" font-size="11">5 · SESSION</text>
  <text x="705" y="150" text-anchor="middle" fill="#ece8e1" font-family="sans-serif" font-size="13">Driver</text>
  <text x="705" y="170" text-anchor="middle" fill="#8a8780" font-family="sans-serif" font-size="10">executePolicy</text>
  <rect x="790" y="96" width="130" height="88" rx="6" fill="#1a1f28" stroke="#b8f000" stroke-width="1.5"/>
  <text x="855" y="128" text-anchor="middle" fill="#b8f000" font-family="sans-serif" font-size="11">6 · RECEIPT</text>
  <text x="855" y="150" text-anchor="middle" fill="#ece8e1" font-family="sans-serif" font-size="13">Clerk</text>
  <text x="855" y="170" text-anchor="middle" fill="#8a8780" font-family="sans-serif" font-size="10">Graph MCP</text>
  <line x1="170" y1="140" x2="186" y2="140" stroke="#b8f000" stroke-width="2"/>
  <line x1="320" y1="140" x2="336" y2="140" stroke="#b8f000" stroke-width="2"/>
  <line x1="470" y1="140" x2="486" y2="140" stroke="#b8f000" stroke-width="2"/>
  <line x1="620" y1="140" x2="636" y2="140" stroke="#b8f000" stroke-width="2"/>
  <line x1="770" y1="140" x2="786" y2="140" stroke="#b8f000" stroke-width="2"/>
  <text x="48" y="228" fill="#8a8780" font-family="monospace" font-size="11">CRYPTOGRAPHIC BOUNDARY</text>
  <rect x="40" y="244" width="280" height="110" rx="6" fill="#12151c" stroke="#b8f000" stroke-width="1"/>
  <text x="56" y="274" fill="#b8f000" font-family="monospace" font-size="12">LEDGER MASTER KEY</text>
  <text x="56" y="296" fill="#ece8e1" font-family="sans-serif" font-size="13">clear-sign HITL</text>
  <text x="56" y="318" fill="#8a8780" font-family="sans-serif" font-size="12">OLED - never leaves device</text>
  <text x="56" y="338" fill="#8a8780" font-family="sans-serif" font-size="11">policy + kill only</text>
  <rect x="340" y="244" width="280" height="110" rx="6" fill="#12151c" stroke="#ff55aa" stroke-width="1"/>
  <text x="356" y="274" fill="#ff55aa" font-family="monospace" font-size="12">HEDERA - KEY RING</text>
  <text x="356" y="296" fill="#ece8e1" font-family="sans-serif" font-size="13">x402 Payer micro-settlements</text>
  <text x="356" y="318" fill="#8a8780" font-family="sans-serif" font-size="12">HBAR via Blocky402 + HCS</text>
  <text x="356" y="338" fill="#8a8780" font-family="sans-serif" font-size="11">pay:trigger capability</text>
  <rect x="640" y="244" width="280" height="110" rx="6" fill="#12151c" stroke="#58a6ff" stroke-width="1"/>
  <text x="656" y="274" fill="#58a6ff" font-family="monospace" font-size="12">BASE SESSION KEY</text>
  <text x="656" y="296" fill="#ece8e1" font-family="sans-serif" font-size="13">Session Driver execution</text>
  <text x="656" y="318" fill="#8a8780" font-family="sans-serif" font-size="12">SessionKeyValidator + GPM</text>
  <text x="656" y="338" fill="#8a8780" font-family="sans-serif" font-size="11">band-gated Uniswap fill</text>
  <text x="48" y="396" fill="#5a5750" font-family="monospace" font-size="11">LLM drafts / Payer settles / Driver fills / Clerk indexes - never one key for all three</text>
</svg>